{"asset":{"version":"2.0","generator":"babylon.js glTF exporter for 3ds max 2018 v1.2.24","copyright":"2017 (c) BabylonJS"},"scene":0,"scenes":[{"nodes":[0,1],"extensions":{}}],"nodes":[{"skin":0,"mesh":0,"translation":[0.0,0.0,0.0],"rotation":[0.0,0.0,0.0,1.0],"scale":[39.37008,39.37008,39.37008],"name":"Cube"},{"children":[2],"translation":[0.0,-30.0,-1.311342E-06],"rotation":[0.0,0.0,0.70710665,0.7071069],"scale":[0.99999994,0.99999994,1.0],"name":"bottom"},{"children":[3],"translation":[70.0,1.8189894E-12,1.446424E-05],"rotation":[-8.43600535E-20,6.91412538E-07,-1.13686838E-13,1.0],"scale":[1.0,1.0,1.0],"name":"torso"},{"children":[4],"translation":[30.0,-1.8189894E-12,0.0],"rotation":[-1.86347248E-20,-5.64259949E-07,0.0,1.0],"scale":[1.0,1.0,1.0],"name":"chest"},{"children":[5,8,11],"translation":[40.0,9.094947E-12,-6.35991455E-07],"rotation":[-3.894996E-09,7.94905E-09,0.0148519352,0.999889731],"scale":[1.0,1.0,1.0],"name":"head"},{"children":[6],"translation":[30.0,2.38418579E-07,30.0],"rotation":[-0.006155936,-0.7087488,-0.0061851,0.705406964],"scale":[1.0,1.00000024,0.99999994],"name":"left01"},{"children":[7],"translation":[29.9999981,-3.63588333E-06,-1.52587891E-05],"rotation":[1.16415344E-09,-2.328307E-10,-5.960375E-08,1.0],"scale":[0.999999642,0.9999998,0.9999998],"name":"left002"},{"translation":[20.0000038,0.0,0.0],"rotation":[1.86264471E-09,-1.16415322E-10,-3.63797751E-12,1.0],"scale":[1.0,1.00000036,1.0],"name":"Bone008"},{"children":[9],"translation":[30.0,2.38418579E-07,-30.0],"rotation":[5.76871E-08,0.7071068,-6.611927E-08,0.7071067],"scale":[0.99999994,1.0,0.99999994],"name":"right01"},{"children":[10],"translation":[29.9999962,-7.15255737E-07,-1.52587891E-05],"rotation":[0.0,-8.742276E-08,-1.58932654E-08,1.0],"scale":[1.0,1.0,1.0],"name":"right02"},{"translation":[19.9999962,0.0,0.0],"rotation":[-4.377216E-08,-4.37114025E-08,4.371139E-08,1.0],"scale":[1.0,1.0,1.0],"name":"Bone011"},{"translation":[40.0,-2.38418579E-07,0.0],"rotation":[0.0,0.0,0.0,1.0],"scale":[1.0,1.0,1.0],"name":"Bone005"}],"meshes":[{"primitives":[{"attributes":{"POSITION":1,"NORMAL":2,"JOINTS_0":3,"WEIGHTS_0":4},"indices":0,"mode":4,"material":0}],"name":"Cube"}],"accessors":[{"bufferView":0,"componentType":5123,"count":408,"type":"SCALAR","name":"accessorIndices"},{"bufferView":1,"componentType":5126,"count":408,"max":[1.00000024,4.27989435,2.14415812],"min":[-1.0,-1.00000012,-2.143029],"type":"VEC3","name":"accessorPositions"},{"bufferView":1,"byteOffset":4896,"componentType":5126,"count":408,"type":"VEC3","name":"accessorNormals"},{"bufferView":2,"componentType":5123,"count":408,"type":"VEC4","name":"accessorJoints"},{"bufferView":3,"componentType":5126,"count":408,"type":"VEC4","name":"accessorWeights"},{"bufferView":4,"componentType":5126,"count":10,"type":"MAT4","name":"accessorInverseBindMatrices"},{"bufferView":5,"componentType":5126,"count":32,"max":[3.33333325],"min":[0.0],"type":"SCALAR","name":"accessorAnimationInput"},{"bufferView":6,"componentType":5126,"count":32,"type":"VEC3","name":"accessorAnimationPositions"},{"bufferView":7,"componentType":5126,"count":32,"type":"VEC4","name":"accessorAnimationRotations"},{"bufferView":6,"byteOffset":384,"componentType":5126,"count":32,"type":"VEC3","name":"accessorAnimationScales"},{"bufferView":5,"byteOffset":128,"componentType":5126,"count":32,"max":[3.33333325],"min":[0.0],"type":"SCALAR","name":"accessorAnimationInput"},{"bufferView":6,"byteOffset":768,"componentType":5126,"count":32,"type":"VEC3","name":"accessorAnimationPositions"},{"bufferView":7,"byteOffset":512,"componentType":5126,"count":32,"type":"VEC4","name":"accessorAnimationRotations"},{"bufferView":6,"byteOffset":1152,"componentType":5126,"count":32,"type":"VEC3","name":"accessorAnimationScales"},{"bufferView":5,"byteOffset":256,"componentType":5126,"count":58,"max":[3.33333325],"min":[0.0],"type":"SCALAR","name":"accessorAnimationInput"},{"bufferView":6,"byteOffset":1536,"componentType":5126,"count":58,"type":"VEC3","name":"accessorAnimationPositions"},{"bufferView":7,"byteOffset":1024,"componentType":5126,"count":58,"type":"VEC4","name":"accessorAnimationRotations"},{"bufferView":6,"byteOffset":2232,"componentType":5126,"count":58,"type":"VEC3","name":"accessorAnimationScales"},{"bufferView":5,"byteOffset":488,"componentType":5126,"count":58,"max":[3.33333325],"min":[0.0],"type":"SCALAR","name":"accessorAnimationInput"},{"bufferView":6,"byteOffset":2928,"componentType":5126,"count":58,"type":"VEC3","name":"accessorAnimationPositions"},{"bufferView":7,"byteOffset":1952,"componentType":5126,"count":58,"type":"VEC4","name":"accessorAnimationRotations"},{"bufferView":6,"byteOffset":3624,"componentType":5126,"count":58,"type":"VEC3","name":"accessorAnimationScales"},{"bufferView":5,"byteOffset":720,"componentType":5126,"count":58,"max":[3.33333325],"min":[0.0],"type":"SCALAR","name":"accessorAnimationInput"},{"bufferView":6,"byteOffset":4320,"componentType":5126,"count":58,"type":"VEC3","name":"accessorAnimationPositions"},{"bufferView":7,"byteOffset":2880,"componentType":5126,"count":58,"type":"VEC4","name":"accessorAnimationRotations"},{"bufferView":6,"byteOffset":5016,"componentType":5126,"count":58,"type":"VEC3","name":"accessorAnimationScales"},{"bufferView":5,"byteOffset":952,"componentType":5126,"count":58,"max":[3.33333325],"min":[0.0],"type":"SCALAR","name":"accessorAnimationInput"},{"bufferView":6,"byteOffset":5712,"componentType":5126,"count":58,"type":"VEC3","name":"accessorAnimationPositions"},{"bufferView":7,"byteOffset":3808,"componentType":5126,"count":58,"type":"VEC4","name":"accessorAnimationRotations"},{"bufferView":6,"byteOffset":6408,"componentType":5126,"count":58,"type":"VEC3","name":"accessorAnimationScales"}],"bufferViews":[{"buffer":0,"byteLength":816,"name":"bufferViewScalar"},{"buffer":0,"byteOffset":816,"byteLength":9792,"byteStride":12,"name":"bufferViewFloatVec3"},{"buffer":0,"byteOffset":10608,"byteLength":3264,"byteStride":8,"name":"bufferViewUnsignedShortVec4"},{"buffer":0,"byteOffset":13872,"byteLength":6528,"byteStride":16,"name":"bufferViewFloatVec4"},{"buffer":0,"byteOffset":20400,"byteLength":640,"name":"bufferViewFloatMat4"},{"buffer":0,"byteOffset":21040,"byteLength":1184,"name":"bufferViewAnimationFloatScalar"},{"buffer":0,"byteOffset":22224,"byteLength":7104,"name":"bufferViewAnimationFloatVec3"},{"buffer":0,"byteOffset":29328,"byteLength":4736,"name":"bufferViewAnimationFloatVec4"}],"buffers":[{"uri":"gltf1.bin","byteLength":34064}],"materials":[{"pbrMetallicRoughness":{"baseColorFactor":[0.833333433,0.833333433,0.833333433,1.0],"metallicFactor":0.0,"roughnessFactor":0.99},"emissiveFactor":[0.0,0.0,0.0],"alphaMode":"OPAQUE","name":"Material"}],"animations":[{"channels":[{"sampler":0,"target":{"node":2,"path":"translation"}},{"sampler":1,"target":{"node":2,"path":"rotation"}},{"sampler":2,"target":{"node":2,"path":"scale"}},{"sampler":3,"target":{"node":3,"path":"translation"}},{"sampler":4,"target":{"node":3,"path":"rotation"}},{"sampler":5,"target":{"node":3,"path":"scale"}},{"sampler":6,"target":{"node":5,"path":"translation"}},{"sampler":7,"target":{"node":5,"path":"rotation"}},{"sampler":8,"target":{"node":5,"path":"scale"}},{"sampler":9,"target":{"node":6,"path":"translation"}},{"sampler":10,"target":{"node":6,"path":"rotation"}},{"sampler":11,"target":{"node":6,"path":"scale"}},{"sampler":12,"target":{"node":8,"path":"translation"}},{"sampler":13,"target":{"node":8,"path":"rotation"}},{"sampler":14,"target":{"node":8,"path":"scale"}},{"sampler":15,"target":{"node":9,"path":"translation"}},{"sampler":16,"target":{"node":9,"path":"rotation"}},{"sampler":17,"target":{"node":9,"path":"scale"}}],"samplers":[{"input":6,"interpolation":"LINEAR","output":7},{"input":6,"interpolation":"LINEAR","output":8},{"input":6,"interpolation":"LINEAR","output":9},{"input":10,"interpolation":"LINEAR","output":11},{"input":10,"interpolation":"LINEAR","output":12},{"input":10,"interpolation":"LINEAR","output":13},{"input":14,"interpolation":"LINEAR","output":15},{"input":14,"interpolation":"LINEAR","output":16},{"input":14,"interpolation":"LINEAR","output":17},{"input":18,"interpolation":"LINEAR","output":19},{"input":18,"interpolation":"LINEAR","output":20},{"input":18,"interpolation":"LINEAR","output":21},{"input":22,"interpolation":"LINEAR","output":23},{"input":22,"interpolation":"LINEAR","output":24},{"input":22,"interpolation":"LINEAR","output":25},{"input":26,"interpolation":"LINEAR","output":27},{"input":26,"interpolation":"LINEAR","output":28},{"input":26,"interpolation":"LINEAR","output":29}],"name":"All Animations"}],"skins":[{"inverseBindMatrices":5,"skeleton":1,"joints":[1,2,3,4,5,6,7,8,9,10],"name":"skeleton #0"}]}